<?xml version="1.0" encoding="UTF-8"?>
<!DOCTYPE svg PUBLIC "-//W3C//DTD SVG 1.1//EN" "http://www.w3.org/Graphics/SVG/1.1/DTD/svg11.dtd">
<!-- Creator: CorelDRAW -->
<svg xmlns="http://www.w3.org/2000/svg" xml:space="preserve" width="44.3726mm" height="43.6602mm" style="shape-rendering:geometricPrecision; text-rendering:geometricPrecision; image-rendering:optimizeQuality; fill-rule:evenodd; clip-rule:evenodd"
viewBox="0 0 20.4261 20.0982"
 xmlns:xlink="http://www.w3.org/1999/xlink">
 <defs>
  <style type="text/css">
   <![CDATA[
    .fil0 {fill:#1F1A17}
   ]]>
  </style>
 </defs>
 <g id="Layer_x0020_1">
  <metadata id="CorelCorpID_0Corel-Layer"/>
  <path id="_148275064" class="fil0" d="M2.7109 6.08969l2.83721 0 0 1.3148c0,0.462864 0.206827,0.713699 0.484407,0.899581 0.526804,0 0.830393,-0.19357 0.830393,-0.691971l0 -1.52241 6.57405 0 0 1.52241c0,0.842316 1.3148,1.16593 1.3148,-0.346032l0 -1.17638 2.9064 0 0 2.07601 0.394781 10.1704 -2.53726 -0.236104c-3.35992,-0.271182 -7.61527,1.16133 -10.9364,0.791725l-2.28205 -0.221374 0.413654 -12.373 0 -0.20761 0 -4.60332e-005zm4.15196 -0.968815c0,-1.57213 0.957721,-3.9444 2.3528,-3.9444l0.553595 0c1.52034,0 2.69883,2.05865 2.69883,3.6676l0 0.276798 -5.60523 0zm6.43563 -0.553595c0,-0.686861 -0.463692,-1.85256 -0.74606,-2.29876 -0.603449,-0.95367 -0.908143,-0.830807 -1.60674,-1.43808 1.45221,0.0323613 2.76802,2.325 2.76802,4.01363l0 0.276798 -0.415219 0 0 -0.553595zm-9.89562 15.5008l2.07821 0.0301057c5.37028,-0.394044 8.67519,-0.778744 13.6302,-0.0992936l0.0691879 0c0.508022,0 1.24561,-0.0911457 1.24561,-0.553641l0 -0.691971c0,-1.20879 -0.601838,-4.85282 -0.794257,-6.40257 -0.265013,-2.13433 -0.601516,-4.43636 -0.77704,-6.48898 -0.0986952,-1.1541 -1.55017,-0.744449 -2.85774,-0.740674 -2.24407,0.00649068 -1.02281,-0.18602 -1.64164,-2.02601 -0.571134,-1.6983 -1.93422,-3.09504 -4.17098,-3.09504 -2.35257,0 -4.27004,1.92216 -4.41735,4.02505 -0.0814327,1.16215 0.334063,1.12956 -0.975904,1.10015 -0.717289,-0.0161116 -1.43564,0.00391282 -2.15306,-0.00787168 -1.0961,-0.017999 -1.06479,-0.0794533 -1.16966,0.906348 -0.0713054,0.670704 -0.153705,1.23765 -0.234493,1.9107 -0.302208,2.51659 -0.597419,5.01242 -0.907821,7.53462 -0.0798216,0.648424 -0.442057,3.45603 -0.289273,3.73836 0.284071,0.524917 2.55075,0.860729 3.36595,0.860729z"/>
 </g>
</svg>
